0
SECTION
2
HEADER
9
$INSUNITS
70
4
9
$ACADVER
1
AC1014
9
$HANDSEED
5
FFFF
0
ENDSEC
0
SECTION
2
TABLES
0
TABLE
2
VPORT
5
8
100
AcDbSymbolTable
0
ENDTAB
0
TABLE
2
LTYPE
5
5
100
AcDbSymbolTable
0
LTYPE
5
14
100
AcDbSymbolTableRecord
100
AcDbLinetypeTableRecord
2
BYBLOCK
70
0
0
LTYPE
5
15
100
AcDbSymbolTableRecord
100
AcDbLinetypeTableRecord
2
BYLAYER
70
0
0
ENDTAB
0
TABLE
2
LAYER
5
2
100
AcDbSymbolTable
70
2
0
LAYER
5
50
100
AcDbSymbolTableRecord
100
AcDbLayerTableRecord
2
0
70
0
6
CONTINUOUS
0
ENDTAB
0
TABLE
2
STYLE
5
3
100
AcDbSymbolTable
70
1
0
STYLE
5
11
100
AcDbSymbolTableRecord
100
AcDbTextStyleTableRecord
2
STANDARD
70
0
0
ENDTAB
0
TABLE
2
VIEW
5
6
100
AcDbSymbolTable
70
0
0
ENDTAB
0
TABLE
2
UCS
5
7
100
AcDbSymbolTable
70
0
0
ENDTAB
0
TABLE
2
APPID
5
9
100
AcDbSymbolTable
70
2
0
APPID
5
12
100
AcDbSymbolTableRecord
100
AcDbRegAppTableRecord
2
ACAD
70
0
0
ENDTAB
0
TABLE
2
DIMSTYLE
5
A
100
AcDbSymbolTable
70
1
0
ENDTAB
0
TABLE
2
BLOCK_RECORD
5
1
100
AcDbSymbolTable
70
1
0
BLOCK_RECORD
5
1F
100
AcDbSymbolTableRecord
100
AcDbBlockTableRecord
2
*MODEL_SPACE
0
BLOCK_RECORD
5
1B
100
AcDbSymbolTableRecord
100
AcDbBlockTableRecord
2
*PAPER_SPACE
0
ENDTAB
0
ENDSEC
0
SECTION
2
BLOCKS
0
BLOCK
5
20
100
AcDbEntity
100
AcDbBlockBegin
2
*MODEL_SPACE
0
ENDBLK
5
21
100
AcDbEntity
100
AcDbBlockEnd
0
BLOCK
5
1C
100
AcDbEntity
100
AcDbBlockBegin
2
*PAPER_SPACE
0
ENDBLK
5
1D
100
AcDbEntity
100
AcDbBlockEnd
0
ENDSEC
0
SECTION
2
ENTITIES
0
LWPOLYLINE
5
100
100
AcDbEntity
8
0
100
AcDbPolyline
90
88
70
1
43
0.0
10
-34.999999999995509
20
-42.348999011993278
10
-34.999999999995516
20
-47.710999011993295
42
-0.4142135623730942
10
-36.499999999995588
20
-49.21099901199338
10
-41.861999999995511
20
-49.210999011993394
42
-0.41421356237317186
10
-42.369999999995507
20
-48.702999011993491
10
-42.3699999999955
20
-48.218999011993382
42
-0.41421356237316675
10
-41.861999999995625
20
-47.710999011993387
10
-39.512999999995507
20
-47.710999011993387
42
0.41421356237315654
10
-39.004999999995505
20
-47.202999011993505
10
-39.004999999995512
20
-46.477239845238586
42
0.19891236737947074
10
-39.153789755152715
20
-46.118029600395793
10
-42.257030588397903
20
-43.014788767150591
42
0.1989123673795386
10
-42.616240833240859
20
-42.865999011993388
10
-47.384079510310009
20
-42.865999011993388
42
0.19891236737938164
10
-47.743289755152709
20
-43.014788767150591
10
-50.846210244838304
20
-46.117709256836193
42
0.19891236737949791
10
-50.994999999995507
20
-46.476919501679149
10
-50.994999999995507
20
-47.202999011993384
42
0.41421356237315654
10
-50.486999999995625
20
-47.710999011993387
10
-48.137999999995515
20
-47.710999011993387
42
-0.41421356237317186
10
-47.629999999995505
20
-48.218999011993262
10
-47.629999999995512
20
-48.702999011993391
42
-0.41421356237316675
10
-48.137999999995394
20
-49.21099901199338
10
-53.499999999995502
20
-49.21099901199338
42
-0.41421356237307944
10
-54.999999999995495
20
-47.710999011993309
10
-54.999999999995495
20
-42.348999011993385
42
-0.41421356237315654
10
-54.491999999995606
20
-41.840999011993389
10
-54.007999999995498
20
-41.840999011993389
42
-0.41421356237316675
10
-53.499999999995502
20
-42.348999011993264
10
-53.499999999995502
20
-44.697999011993382
42
0.41421356237316675
10
-52.99199999999562
20
-45.205999011993391
10
-52.266240833240701
20
-45.205999011993391
42
0.19891236737943804
10
-51.907030588397909
20
-45.057209256836188
10
-48.803789755152707
20
-41.953968423590993
42
0.1989123673795386
10
-48.654999999995503
20
-41.594758178748037
10
-48.654999999995503
20
-36.826919501678887
42
0.19891236737940821
10
-48.803789755152707
20
-36.467709256836194
10
-51.906710244838301
20
-33.3647887671506
42
0.19891236737952916
10
-52.265920489681257
20
-33.215999011993389
10
-52.9919999999955
20
-33.215999011993389
42
0.4142135623731642
10
-53.499999999995502
20
-33.723999011993271
10
-53.499999999995502
20
-36.072999011993389
42
-0.41421356237315904
10
-54.007999999995377
20
-36.580999011993391
10
-54.4919999999955
20
-36.580999011993399
42
-0.41421356237316931
10
-54.999999999995495
20
-36.072999011993502
10
-54.999999999995509
20
-30.710999011993394
42
-0.4142135623730786
10
-53.499999999995424
20
-29.210999011993394
10
-48.137999999995515
20
-29.210999011993408
42
-0.41421356237314882
10
-47.629999999995505
20
-29.718999011993287
10
-47.629999999995505
20
-30.202999011993388
42
-0.41421356237315904
10
-48.13799999999538
20
-30.710999011993394
10
-50.486999999995497
20
-30.71099901199339
42
0.41421356237316165
10
-50.994999999995507
20
-31.218999011993276
10
-50.994999999995507
20
-31.944758178748192
42
0.19891236737943188
10
-50.846210244838304
20
-32.303968423590995
10
-47.742969411593108
20
-35.407209256836197
42
0.19891236737951828
10
-47.383759166750153
20
-35.555999011993393
10
-42.615920489681002
20
-35.555999011993393
42
0.19891236737938484
10
-42.256710244838303
20
-35.407209256836197
10
-39.153789755152708
20
-32.304288767150588
42
0.19891236737951729
10
-39.004999999995505
20
-31.945078522307636
10
-39.004999999995505
20
-31.218999011993397
42
0.4142135623731642
10
-39.512999999995387
20
-30.710999011993394
10
-41.861999999995518
20
-30.710999011993398
42
-0.41421356237317436
10
-42.369999999995507
20
-30.202999011993512
10
-42.369999999995507
20
-29.718999011993393
42
-0.41421356237315904
10
-41.861999999995618
20
-29.210999011993394
10
-36.499999999995509
20
-29.210999011993394
42
-0.41421356237308288
10
-34.999999999995509
20
-30.710999011993472
10
-34.999999999995509
20
-36.072999011993389
42
-0.41421356237315132
10
-35.507999999995398
20
-36.580999011993391
10
-35.991999999995507
20
-36.580999011993391
42
-0.4142135623731642
10
-36.499999999995509
20
-36.07299901199351
10
-36.499999999995502
20
-33.723999011993392
42
0.4142135623731642
10
-37.007999999995384
20
-33.215999011993389
10
-37.733759166750303
20
-33.215999011993397
42
0.19891236737945284
10
-38.09296941159311
20
-33.364788767150593
10
-41.196210244838305
20
-36.468029600395788
42
0.19891236737952786
10
-41.344999999995508
20
-36.827239845238736
10
-41.344999999995508
20
-41.595078522307894
42
0.19891236737938164
10
-41.196210244838305
20
-41.954288767150594
10
-38.093289755152703
20
-45.057209256836188
42
0.19891236737949727
10
-37.734079510309748
20
-45.205999011993391
10
-37.007999999995505
20
-45.205999011993391
42
0.4142135623731642
10
-36.499999999995509
20
-44.69799901199351
10
-36.499999999995516
20
-42.348999011993378
42
-0.41421356237317436
10
-35.991999999995627
20
-41.840999011993389
10
-35.507999999995505
20
-41.840999011993389
42
-0.41421356237315904
0
LWPOLYLINE
5
101
100
AcDbEntity
8
0
100
AcDbPolyline
90
16
70
1
43
0.0
10
-43.064222609211306
20
-38.407269024168599
42
-0.19934880077004935
10
-43.064222609211306
20
-40.014728999818168
42
-0.58433019455582469
10
-42.695506963201701
20
-41.335492048787195
10
-42.875506963201701
20
-41.515492048787181
42
-0.5843301945558238
10
-44.196270012170828
20
-41.146776402777299
42
-0.19934880077008849
10
-45.803729987820283
20
-41.14677640277759
42
-0.58433019455581836
10
-47.12449303678931
20
-41.515492048787195
10
-47.304493036789296
20
-41.335492048787188
42
-0.5843301945558238
10
-46.935777390779705
20
-40.014728999818189
42
-0.1993488007701269
10
-46.935777390779705
20
-38.407269024168599
42
-0.58433019455582147
10
-47.30449303678931
20
-37.086505975199586
10
-47.124493036789303
20
-36.906505975199593
42
-0.58433019455582869
10
-45.803729987820418
20
-37.275221621208914
42
-0.19934880077008885
10
-44.196270012170714
20
-37.275221621209205
42
-0.58433019455582469
10
-42.875506963201701
20
-36.906505975199593
10
-42.695506963201709
20
-37.086505975199579
42
-0.58433019455582469
0
ENDSEC
0
SECTION
2
OBJECTS
0
DICTIONARY
5
C
100
AcDbDictionary
3
ACAD_GROUP
350
D
3
ACAD_MLINESTYLE
350
17
0
DICTIONARY
5
D
100
AcDbDictionary
0
DICTIONARY
5
1A
330
C
100
AcDbDictionary
0
DICTIONARY
5
17
100
AcDbDictionary
0
ENDSEC
0
EOF
