0
SECTION
2
HEADER
9
$INSUNITS
70
4
9
$ACADVER
1
AC1014
9
$HANDSEED
5
FFFF
0
ENDSEC
0
SECTION
2
TABLES
0
TABLE
2
VPORT
5
8
100
AcDbSymbolTable
0
ENDTAB
0
TABLE
2
LTYPE
5
5
100
AcDbSymbolTable
0
LTYPE
5
14
100
AcDbSymbolTableRecord
100
AcDbLinetypeTableRecord
2
BYBLOCK
70
0
0
LTYPE
5
15
100
AcDbSymbolTableRecord
100
AcDbLinetypeTableRecord
2
BYLAYER
70
0
0
ENDTAB
0
TABLE
2
LAYER
5
2
100
AcDbSymbolTable
70
2
0
LAYER
5
50
100
AcDbSymbolTableRecord
100
AcDbLayerTableRecord
2
0
70
0
6
CONTINUOUS
0
ENDTAB
0
TABLE
2
STYLE
5
3
100
AcDbSymbolTable
70
1
0
STYLE
5
11
100
AcDbSymbolTableRecord
100
AcDbTextStyleTableRecord
2
STANDARD
70
0
0
ENDTAB
0
TABLE
2
VIEW
5
6
100
AcDbSymbolTable
70
0
0
ENDTAB
0
TABLE
2
UCS
5
7
100
AcDbSymbolTable
70
0
0
ENDTAB
0
TABLE
2
APPID
5
9
100
AcDbSymbolTable
70
2
0
APPID
5
12
100
AcDbSymbolTableRecord
100
AcDbRegAppTableRecord
2
ACAD
70
0
0
ENDTAB
0
TABLE
2
DIMSTYLE
5
A
100
AcDbSymbolTable
70
1
0
ENDTAB
0
TABLE
2
BLOCK_RECORD
5
1
100
AcDbSymbolTable
70
1
0
BLOCK_RECORD
5
1F
100
AcDbSymbolTableRecord
100
AcDbBlockTableRecord
2
*MODEL_SPACE
0
BLOCK_RECORD
5
1B
100
AcDbSymbolTableRecord
100
AcDbBlockTableRecord
2
*PAPER_SPACE
0
ENDTAB
0
ENDSEC
0
SECTION
2
BLOCKS
0
BLOCK
5
20
100
AcDbEntity
100
AcDbBlockBegin
2
*MODEL_SPACE
0
ENDBLK
5
21
100
AcDbEntity
100
AcDbBlockEnd
0
BLOCK
5
1C
100
AcDbEntity
100
AcDbBlockBegin
2
*PAPER_SPACE
0
ENDBLK
5
1D
100
AcDbEntity
100
AcDbBlockEnd
0
ENDSEC
0
SECTION
2
ENTITIES
0
LWPOLYLINE
5
100
100
AcDbEntity
8
0
100
AcDbPolyline
90
128
70
1
43
0.0
10
-404.99999999999955
20
58.500000000000007
42
-0.41421356237320772
10
-403.4999999999996
20
60.000000000000014
10
-398.13799999999907
20
60.000000000000014
42
-0.4142135623733767
10
-397.62999999999954
20
59.492000000000004
10
-397.62999999999954
20
59.007999999999541
42
-0.41421356237340229
10
-398.13799999999958
20
58.5
10
-400.48700000000002
20
58.50000000000005
42
0.41421356237338691
10
-400.99499999999955
20
57.991999999999997
10
-400.99499999999955
20
57.2662408332463
42
0.19891236737883225
10
-400.84621024484238
20
56.907030588402002
10
-397.74296941159719
20
53.803789755157027
42
0.19891236738044743
10
-397.38375916675437
20
53.655000000000008
10
-392.61592048968407
20
53.655000000000015
42
0.19891236737987009
10
-392.25671024484245
20
53.803789755157005
10
-389.15378975515682
20
56.906710244843019
42
0.19891236738012255
10
-389.0049999999996
20
57.26592048968601
10
-389.0049999999996
20
57.992000000000502
42
0.41421356237338181
10
-389.51299999999958
20
58.5
10
-391.86200000000008
20
58.499999999999979
42
-0.4142135623733767
10
-392.36999999999961
20
59.007999999999996
10
-392.36999999999961
20
59.492000000000459
42
-0.41421356237340229
10
-391.86199999999957
20
60
10
-386.49999999999926
20
60
42
-0.41421356237315227
10
-384.99999999999955
20
58.500000000000007
10
-384.99999999999955
20
53.137999999999522
42
-0.41421356237339207
10
-385.50799999999958
20
52.629999999999995
10
-385.99200000000002
20
52.629999999999981
42
-0.41421356237338181
10
-386.49999999999955
20
53.138000000000005
10
-386.49999999999955
20
55.487000000000499
42
0.41421356237334089
10
-387.00799999999953
20
55.995000000000005
10
-387.73375916675542
20
55.994999999999997
42
0.19891236737991827
10
-388.09296941159721
20
55.846210244843
10
-391.1962102448424
20
52.742969411598004
42
0.19891236737816753
10
-391.34499999999957
20
52.383759166755006
10
-391.34499999999957
20
47.615920489685408
42
0.19891236737981546
10
-391.1962102448424
20
47.256710244843006
10
-388.09328975515677
20
44.153789755157007
42
0.19891236738040149
10
-387.73407951031402
20
44.00500000000001
10
-387.00799999999907
20
44.004999999999967
42
0.41421356237338691
10
-386.49999999999955
20
44.513000000000005
10
-386.49999999999949
20
46.862000000000485
42
-0.41421356237339718
10
-385.99199999999951
20
47.370000000000005
10
-385.50799999999913
20
47.370000000000033
42
-0.41421356237338691
10
-384.99999999999955
20
46.862000000000002
10
-384.99999999999955
20
33.13799999999987
42
-0.41421356237311813
10
-385.50799999999953
20
32.63000000000001
10
-385.99199999999968
20
32.63000000000001
42
-0.4142135623731642
10
-386.49999999999955
20
33.138000000000012
10
-386.49999999999955
20
35.48700000000013
42
0.41421356237317702
10
-387.00799999999958
20
35.995000000000005
10
-387.73407951031379
20
35.995000000000005
42
0.19891236737951506
10
-388.09328975515677
20
35.846210244842808
10
-391.1962102448424
20
32.743289755157221
42
0.1989123673794016
10
-391.34499999999957
20
32.384079510314514
10
-391.34499999999957
20
27.616240833245364
42
0.19891236737955359
10
-391.19621024484229
20
27.257030588402415
10
-388.09296941159715
20
24.15378975515722
42
0.19891236737944709
10
-387.73375916675434
20
24.005000000000017
10
-387.00799999999947
20
24.00500000000001
42
0.4142135623731642
10
-386.49999999999955
20
24.513000000000016
10
-386.49999999999955
20
26.862000000000165
42
-0.41421356237316165
10
-385.99199999999951
20
27.370000000000015
10
-385.50799999999947
20
27.370000000000005
42
-0.41421356237315904
10
-384.99999999999955
20
26.862000000000013
10
-384.99999999999955
20
21.500000000000089
42
-0.41421356237309331
10
-386.49999999999966
20
20.000000000000018
10
-391.86199999999974
20
20.000000000000028
42
-0.41421356237315904
10
-392.36999999999961
20
20.50800000000002
10
-392.36999999999961
20
20.992000000000161
42
-0.4142135623731642
10
-391.86199999999957
20
21.500000000000018
10
-389.51299999999947
20
21.500000000000018
42
0.4142135623731642
10
-389.0049999999996
20
22.008000000000017
10
-389.0049999999996
20
22.73407951031426
42
0.19891236737950543
10
-389.15378975515671
20
23.093289755157219
10
-392.25671024484234
20
26.19621024484282
42
0.19891236737941242
10
-392.6159204896851
20
26.345000000000013
10
-397.3837591667542
20
26.345000000000024
42
0.19891236737952464
10
-397.74296941159719
20
26.196210244842813
10
-400.84621024484238
20
23.092969411597629
42
0.1989123673794525
10
-400.99499999999955
20
22.733759166754819
10
-400.99499999999955
20
22.0079999999999
42
0.41421356237317702
10
-400.48699999999951
20
21.500000000000018
10
-398.13799999999947
20
21.500000000000021
42
-0.4142135623731642
10
-397.62999999999954
20
20.992000000000019
10
-397.62999999999954
20
20.507999999999875
42
-0.41421356237315654
10
-398.13799999999958
20
20.000000000000018
10
-403.49999999999955
20
20.000000000000039
42
-0.41421356237307944
10
-404.99999999999955
20
21.500000000000018
10
-404.99999999999955
20
26.862000000000155
42
-0.41421356237311813
10
-404.49199999999962
20
27.370000000000015
10
-404.00799999999947
20
27.370000000000019
42
-0.4142135623731642
10
-403.4999999999996
20
26.862000000000016
10
-403.4999999999996
20
24.512999999999895
42
0.41421356237317702
10
-402.99199999999956
20
24.005000000000017
10
-402.26592048968536
20
24.005000000000024
42
0.19891236737951506
10
-401.90671024484237
20
24.153789755157216
10
-398.80378975515674
20
27.256710244842807
42
0.1989123673794016
10
-398.65499999999952
20
27.615920489685514
10
-398.65499999999952
20
32.383759166754665
42
0.19891236737955359
10
-398.8037897551568
20
32.742969411597613
10
-401.90703058840199
20
35.846210244842808
42
0.19891236737944709
10
-402.26624083324481
20
35.995000000000005
10
-402.99199999999973
20
35.995000000000019
42
0.4142135623731642
10
-403.4999999999996
20
35.487000000000009
10
-403.4999999999996
20
33.137999999999863
42
-0.41421356237316165
10
-404.00799999999958
20
32.63000000000001
10
-404.49199999999968
20
32.630000000000024
42
-0.41421356237315904
10
-404.99999999999955
20
33.138000000000012
10
-404.99999999999955
20
46.862000000000492
42
-0.41421356237339207
10
-404.49199999999956
20
47.370000000000005
10
-404.00799999999913
20
47.370000000000033
42
-0.41421356237339207
10
-403.4999999999996
20
46.861999999999995
10
-403.4999999999996
20
44.512999999999501
42
0.41421356237338181
10
-402.99199999999956
20
44.00500000000001
10
-402.26624083324373
20
44.005000000000003
42
0.19891236737991827
10
-401.90703058840194
20
44.153789755157007
10
-398.80378975515674
20
47.257030588401996
42
0.19891236737817664
10
-398.65499999999952
20
47.616240833245016
10
-398.65499999999952
20
52.384079510314606
42
0.1989123673798186
10
-398.80378975515674
20
52.743289755157008
10
-401.90671024484237
20
55.846210244842993
42
0.19891236738040474
10
-402.26592048968513
20
55.995000000000005
10
-402.99200000000008
20
55.995000000000047
42
0.41421356237338181
10
-403.4999999999996
20
55.487000000000002
10
-403.4999999999996
20
53.137999999999536
42
-0.41421356237339718
10
-404.00799999999958
20
52.629999999999995
10
-404.49200000000008
20
52.629999999999981
42
-0.4142135623733767
10
-404.99999999999955
20
53.137999999999998
0
LWPOLYLINE
5
101
100
AcDbEntity
8
0
100
AcDbPolyline
90
24
70
1
43
0.0
10
-403.4999999999996
20
41.997000000000504
10
-403.4999999999996
20
38.002999999999886
42
0.414213562373136
10
-402.99199999999962
20
37.495000000000012
10
-401.64492048968503
20
37.495000000000012
42
-0.1989123673793744
10
-401.28571024484239
20
37.346210244842808
10
-397.74328975515681
20
33.803789755157204
42
0.19891236737952145
10
-397.38407951031382
20
33.655000000000015
10
-392.61624083324477
20
33.655000000000001
42
0.19891236737945037
10
-392.25703058840196
20
33.803789755157212
10
-388.71461009871643
20
37.346210244842815
42
-0.19891236737948187
10
-388.35539985387356
20
37.495000000000012
10
-387.00799999999958
20
37.495000000000005
42
0.41421356237317952
10
-386.49999999999955
20
38.002999999999894
10
-386.49999999999955
20
41.997000000000007
42
0.41421356237342277
10
-387.00799999999913
20
42.50500000000001
10
-388.35539985387379
20
42.505000000000059
42
-0.19891236738037574
10
-388.71461009871643
20
42.653789755157014
10
-392.25703058840196
20
46.196210244842973
42
0.19891236737990226
10
-392.61624083324369
20
46.345000000000013
10
-397.38407951031405
20
46.344999999999985
42
0.19891236738040149
10
-397.74328975515681
20
46.196210244843002
10
-401.28571024484239
20
42.653789755157014
42
-0.19891236737989251
10
-401.64492048968413
20
42.50500000000001
10
-402.99199999999962
20
42.505000000000052
42
0.41421356237334089
0
LWPOLYLINE
5
102
100
AcDbEntity
8
0
100
AcDbPolyline
90
16
70
1
43
0.0
10
-397.12449303679335
20
52.304493036794
10
-397.30449303679336
20
52.124493036794
42
0.58433019455589352
10
-396.93577739078376
20
50.803729987824994
42
0.19934880077014028
10
-396.9357773907837
20
49.196270012174978
42
0.58433019455591928
10
-397.30449303679336
20
47.875506963206
10
-397.12449303679335
20
47.695506963206
42
0.58433019455563107
10
-395.80372998782434
20
48.064222609216031
42
0.19934880076991907
10
-394.19627001217475
20
48.06422260921601
42
0.58433019455562618
10
-392.87550696320579
20
47.695506963206007
10
-392.69550696320579
20
47.875506963205972
42
0.58433019455590074
10
-393.06422260921534
20
49.196270012174999
42
0.1993488007701413
10
-393.06422260921545
20
50.803729987825022
42
0.58433019455591928
10
-392.69550696320579
20
52.124493036794
10
-392.87550696320579
20
52.304493036794007
42
0.58433019455562718
10
-394.19627001217475
20
51.93577739078399
42
0.19934880077030007
10
-395.80372998782434
20
51.93577739078399
42
0.58433019455562996
0
LWPOLYLINE
5
103
100
AcDbEntity
8
0
100
AcDbPolyline
90
16
70
1
43
0.0
10
-396.93577739078376
20
29.196270012175233
42
-0.19934880077005271
10
-396.93577739078376
20
30.803729987824795
42
-0.58433019455581681
10
-397.30449303679342
20
32.124493036793801
10
-397.12449303679335
20
32.304493036793787
42
-0.58433019455582369
10
-395.80372998782423
20
31.935777390783961
42
-0.19934880077008918
10
-394.19627001217486
20
31.935777390784217
42
-0.58433019455582558
10
-392.87550696320579
20
32.304493036793808
10
-392.69550696320573
20
32.124493036793837
42
-0.58433019455584279
10
-393.06422260921534
20
30.803729987824802
42
-0.19934880077012126
10
-393.06422260921534
20
29.196270012175233
42
-0.58433019455581681
10
-392.69550696320573
20
27.875506963206224
10
-392.87550696320579
20
27.695506963206242
42
-0.58433019455582369
10
-394.19627001217469
20
28.064222609215562
42
-0.19934880077008918
10
-395.80372998782428
20
28.064222609215808
42
-0.58433019455582558
10
-397.12449303679335
20
27.695506963206217
10
-397.30449303679342
20
27.875506963206185
42
-0.58433019455584367
0
ENDSEC
0
SECTION
2
OBJECTS
0
DICTIONARY
5
C
100
AcDbDictionary
3
ACAD_GROUP
350
D
3
ACAD_MLINESTYLE
350
17
0
DICTIONARY
5
D
100
AcDbDictionary
0
DICTIONARY
5
1A
330
C
100
AcDbDictionary
0
DICTIONARY
5
17
100
AcDbDictionary
0
ENDSEC
0
EOF
