0
SECTION
2
HEADER
9
$INSUNITS
70
4
9
$ACADVER
1
AC1014
9
$HANDSEED
5
FFFF
0
ENDSEC
0
SECTION
2
TABLES
0
TABLE
2
VPORT
5
8
100
AcDbSymbolTable
0
ENDTAB
0
TABLE
2
LTYPE
5
5
100
AcDbSymbolTable
0
LTYPE
5
14
100
AcDbSymbolTableRecord
100
AcDbLinetypeTableRecord
2
BYBLOCK
70
0
0
LTYPE
5
15
100
AcDbSymbolTableRecord
100
AcDbLinetypeTableRecord
2
BYLAYER
70
0
0
ENDTAB
0
TABLE
2
LAYER
5
2
100
AcDbSymbolTable
70
2
0
LAYER
5
50
100
AcDbSymbolTableRecord
100
AcDbLayerTableRecord
2
0
70
0
6
CONTINUOUS
0
ENDTAB
0
TABLE
2
STYLE
5
3
100
AcDbSymbolTable
70
1
0
STYLE
5
11
100
AcDbSymbolTableRecord
100
AcDbTextStyleTableRecord
2
STANDARD
70
0
0
ENDTAB
0
TABLE
2
VIEW
5
6
100
AcDbSymbolTable
70
0
0
ENDTAB
0
TABLE
2
UCS
5
7
100
AcDbSymbolTable
70
0
0
ENDTAB
0
TABLE
2
APPID
5
9
100
AcDbSymbolTable
70
2
0
APPID
5
12
100
AcDbSymbolTableRecord
100
AcDbRegAppTableRecord
2
ACAD
70
0
0
ENDTAB
0
TABLE
2
DIMSTYLE
5
A
100
AcDbSymbolTable
70
1
0
ENDTAB
0
TABLE
2
BLOCK_RECORD
5
1
100
AcDbSymbolTable
70
1
0
BLOCK_RECORD
5
1F
100
AcDbSymbolTableRecord
100
AcDbBlockTableRecord
2
*MODEL_SPACE
0
BLOCK_RECORD
5
1B
100
AcDbSymbolTableRecord
100
AcDbBlockTableRecord
2
*PAPER_SPACE
0
ENDTAB
0
ENDSEC
0
SECTION
2
BLOCKS
0
BLOCK
5
20
100
AcDbEntity
100
AcDbBlockBegin
2
*MODEL_SPACE
0
ENDBLK
5
21
100
AcDbEntity
100
AcDbBlockEnd
0
BLOCK
5
1C
100
AcDbEntity
100
AcDbBlockBegin
2
*PAPER_SPACE
0
ENDBLK
5
1D
100
AcDbEntity
100
AcDbBlockEnd
0
ENDSEC
0
SECTION
2
ENTITIES
0
LWPOLYLINE
5
100
100
AcDbEntity
8
0
100
AcDbPolyline
90
168
70
1
43
0.0
10
108.49999999999579
20
-29.211001396179199
42
-0.41421356237309853
10
109.99999999999577
20
-30.711001396179203
10
109.99999999999579
20
-36.073001396179201
42
-0.41421356237307461
10
109.49199999999578
20
-36.581001396179204
10
109.00799999999577
20
-36.58100139617919
42
-0.41421356237307461
10
108.49999999999579
20
-36.073001396179201
10
108.49999999999577
20
-33.724001396179204
42
0.41421356237311296
10
107.99199999999578
20
-33.216001396179202
10
107.26592048968128
20
-33.216001396179166
42
0.1989123673796355
10
106.90671024483856
20
-33.364791151336405
10
103.80378975515298
20
-36.467711641022007
42
0.19891236737960333
10
103.65499999999578
20
-36.826921885864699
10
103.65499999999578
20
-41.594760562933992
42
0.19891236737961598
10
103.80378975515298
20
-41.953970807776798
10
106.90703058839821
20
-45.057211641021965
42
0.19891236737965154
10
107.26624083324097
20
-45.206001396179197
10
107.99199999999578
20
-45.206001396179204
42
0.41421356237308993
10
108.49999999999579
20
-44.698001396179201
10
108.49999999999579
20
-42.349001396179204
42
-0.41421356237307971
10
109.00799999999577
20
-41.841001396179195
10
109.49199999999578
20
-41.841001396179209
42
-0.41421356237307971
10
109.99999999999577
20
-42.349001396179204
10
109.99999999999579
20
-56.073001396179201
42
-0.41421356237306939
10
109.49199999999578
20
-56.581001396179204
10
109.00799999999577
20
-56.581001396179204
42
-0.41421356237307971
10
108.49999999999579
20
-56.073001396179201
10
108.49999999999577
20
-53.724001396179204
42
0.41421356237311552
10
107.99199999999578
20
-53.216001396179202
10
107.26624083324097
20
-53.216001396179209
42
0.19891236737969278
10
106.90703058839817
20
-53.364791151336433
10
103.80378975515299
20
-56.468031984581629
42
0.19891236737965479
10
103.65499999999578
20
-56.827242229424385
10
103.65499999999577
20
-61.595080906493671
42
0.19891236737966839
10
103.80378975515298
20
-61.954291151336427
10
106.90671024483854
20
-65.057211641021993
42
0.19891236737962589
10
107.26592048968128
20
-65.206001396179204
10
107.99199999999578
20
-65.206001396179204
42
0.41421356237309509
10
108.49999999999579
20
-64.698001396179194
10
108.49999999999579
20
-62.349001396179204
42
-0.41421356237307971
10
109.00799999999577
20
-61.841001396179195
10
109.49199999999578
20
-61.841001396179195
42
-0.41421356237307971
10
109.99999999999577
20
-62.349001396179197
10
109.99999999999577
20
-67.711001396179199
42
-0.41421356237309853
10
108.49999999999579
20
-69.211001396179199
10
103.13799999999576
20
-69.211001396179213
42
-0.41421356237304896
10
102.62999999999577
20
-68.703001396179204
10
102.62999999999579
20
-68.219001396179209
42
-0.41421356237307461
10
103.13799999999577
20
-67.711001396179199
10
105.48699999999577
20
-67.711001396179199
42
0.41421356237308488
10
105.99499999999578
20
-67.203001396179204
10
105.99499999999577
20
-66.477242229424377
42
0.19891236737965101
10
105.84621024483859
20
-66.11803198458162
10
102.74296941159335
20
-63.014791151336453
42
0.19891236737965212
10
102.38375916675056
20
-62.8660013961792
10
97.615920489681287
20
-62.866001396179207
42
0.19891236737968263
10
97.25671024483853
20
-63.014791151336425
10
94.153789755153014
20
-66.11771164102197
42
0.19891236737967863
10
94.004999999995761
20
-66.476921885864741
10
94.004999999995761
20
-67.203001396179204
42
0.41421356237307971
10
94.51299999999577
20
-67.711001396179199
10
96.861999999995788
20
-67.711001396179199
42
-0.41421356237304896
10
97.36999999999577
20
-68.219001396179209
10
97.36999999999577
20
-68.703001396179204
42
-0.41421356237306939
10
96.86199999999576
20
-69.211001396179199
10
83.137999999995756
20
-69.211001396179185
42
-0.41421356237308488
10
82.629999999995761
20
-68.703001396179204
10
82.629999999995761
20
-68.219001396179209
42
-0.41421356237308488
10
83.137999999995756
20
-67.711001396179213
10
85.48699999999576
20
-67.711001396179213
42
0.41421356237308488
10
85.99499999999577
20
-67.203001396179218
10
85.99499999999577
20
-66.476921885864741
42
0.19891236737962509
10
85.846210244838517
20
-66.11771164102197
10
82.743289755153
20
-63.014791151336439
42
0.19891236737967033
10
82.384079510310229
20
-62.8660013961792
10
77.616240833240965
20
-62.866001396179207
42
0.19891236737968312
10
77.257030588398152
20
-63.014791151336446
10
74.153789755152985
20
-66.118031984581634
42
0.19891236737962642
10
74.004999999995761
20
-66.477242229424377
10
74.004999999995761
20
-67.203001396179204
42
0.41421356237306939
10
74.512999999995756
20
-67.711001396179199
10
76.86199999999576
20
-67.711001396179199
42
-0.41421356237311552
10
77.369999999995756
20
-68.219001396179209
10
77.369999999995756
20
-68.703001396179204
42
-0.41421356237310525
10
76.86199999999576
20
-69.211001396179199
10
71.499999999995765
20
-69.211001396179213
42
-0.4142135623730881
10
69.999999999995751
20
-67.711001396179213
10
69.999999999995765
20
-62.349001396179204
42
-0.41421356237311552
10
70.507999999995761
20
-61.841001396179195
10
70.991999999995755
20
-61.841001396179195
42
-0.41421356237308993
10
71.499999999995765
20
-62.349001396179204
10
71.499999999995765
20
-64.698001396179194
42
0.41421356237311552
10
72.007999999995761
20
-65.206001396179204
10
72.734079510310266
20
-65.206001396179204
42
0.19891236737965878
10
73.093289755152966
20
-65.057211641021965
10
76.196210244838554
20
-61.95429115133642
42
0.19891236737966522
10
76.344999999995764
20
-61.595080906493671
10
76.344999999995736
20
-56.827242229424392
42
0.19891236737969306
10
76.196210244838568
20
-56.4680319845816
10
73.092969411593344
20
-53.364791151336455
42
0.19891236737969142
10
72.733759166750559
20
-53.216001396179202
10
72.007999999995761
20
-53.216001396179195
42
0.41421356237309509
10
71.499999999995765
20
-53.724001396179204
10
71.499999999995765
20
-56.073001396179201
42
-0.41421356237310525
10
70.991999999995755
20
-56.581001396179204
10
70.507999999995761
20
-56.581001396179204
42
-0.41421356237307971
10
69.999999999995751
20
-56.073001396179201
10
69.999999999995751
20
-42.349001396179204
42
-0.41421356237312573
10
70.507999999995761
20
-41.841001396179195
10
70.991999999995755
20
-41.841001396179209
42
-0.41421356237311552
10
71.499999999995765
20
-42.349001396179204
10
71.499999999995765
20
-44.698001396179201
42
0.41421356237312068
10
72.007999999995761
20
-45.206001396179197
10
72.733759166750559
20
-45.20600139617919
42
0.19891236737965162
10
73.092969411593359
20
-45.057211641021993
10
76.196210244838511
20
-41.953970807776749
42
0.19891236737963927
10
76.344999999995764
20
-41.594760562933999
10
76.344999999995736
20
-36.826921885864706
42
0.19891236737960394
10
76.196210244838568
20
-36.467711641022007
10
73.093289755152981
20
-33.364791151336384
42
0.19891236737961812
10
72.734079510310266
20
-33.216001396179202
10
72.007999999995761
20
-33.216001396179209
42
0.41421356237309759
10
71.499999999995765
20
-33.724001396179204
10
71.499999999995765
20
-36.073001396179201
42
-0.41421356237309248
10
70.991999999995755
20
-36.581001396179204
10
70.507999999995761
20
-36.581001396179204
42
-0.41421356237308993
10
69.999999999995751
20
-36.073001396179201
10
69.999999999995751
20
-30.711001396179203
42
-0.41421356237309509
10
71.499999999995765
20
-29.211001396179203
10
76.86199999999576
20
-29.211001396179206
42
-0.41421356237311296
10
77.36999999999577
20
-29.719001396179202
10
77.36999999999577
20
-30.2030013961792
42
-0.41421356237309509
10
76.86199999999576
20
-30.711001396179203
10
74.512999999995756
20
-30.711001396179192
42
0.41421356237308488
10
74.004999999995761
20
-31.219001396179202
10
74.004999999995789
20
-31.944760562934004
42
0.19891236737963933
10
74.153789755152957
20
-32.3039708077768
10
77.257030588398209
20
-35.407211641021959
42
0.19891236737964249
10
77.616240833240965
20
-35.556001396179198
10
82.384079510310229
20
-35.556001396179212
42
0.19891236737961254
10
82.743289755153
20
-35.407211641022002
10
85.846210244838574
20
-32.304291151336436
42
0.19891236737961232
10
85.99499999999577
20
-31.9450809064937
10
85.994999999995784
20
-31.219001396179202
42
0.41421356237308227
10
85.48699999999576
20
-30.711001396179203
10
83.137999999995742
20
-30.711001396179181
42
-0.41421356237307971
10
82.629999999995775
20
-30.2030013961792
10
82.629999999995761
20
-29.719001396179202
42
-0.41421356237308737
10
83.137999999995756
20
-29.211001396179203
10
96.86199999999576
20
-29.211001396179206
42
-0.41421356237312834
10
97.36999999999577
20
-29.719001396179202
10
97.36999999999577
20
-30.2030013961792
42
-0.41421356237307205
10
96.86199999999576
20
-30.711001396179203
10
94.51299999999577
20
-30.711001396179206
42
0.41421356237308227
10
94.004999999995761
20
-31.219001396179202
10
94.004999999995761
20
-31.945080906493708
42
0.1989123673796723
10
94.153789755153014
20
-32.3042911513364
10
97.256710244838573
20
-35.407211641021973
42
0.1989123673796355
10
97.615920489681287
20
-35.556001396179198
10
102.38375916675056
20
-35.556001396179163
42
0.19891236737964674
10
102.74296941159336
20
-35.407211641022002
10
105.84621024483853
20
-32.303970807776764
42
0.19891236737971099
10
105.99499999999578
20
-31.944760562934004
10
105.99499999999578
20
-31.219001396179202
42
0.41421356237307461
10
105.48699999999577
20
-30.711001396179203
10
103.13799999999577
20
-30.711001396179206
42
-0.41421356237307461
10
102.62999999999577
20
-30.2030013961792
10
102.62999999999577
20
-29.719001396179202
42
-0.41421356237311296
10
103.13799999999577
20
-29.211001396179203
0
LWPOLYLINE
5
101
100
AcDbEntity
8
0
100
AcDbPolyline
90
56
70
1
43
0.0
10
108.49999999999579
20
-51.208001396179199
10
108.49999999999579
20
-47.214001396179199
42
0.41421356237311041
10
107.99199999999578
20
-46.706001396179204
10
106.64492048968128
20
-46.706001396179182
42
-0.19891236737962592
10
106.28571024483858
20
-46.557211641022
10
102.74328975515296
20
-43.014791151336411
42
0.19891236737963761
10
102.38407951031027
20
-42.8660013961792
10
97.487999999995765
20
-42.8660013961792
42
-0.41421356237309276
10
96.344999999995764
20
-41.723001396179207
10
96.344999999995778
20
-36.827242229424407
42
0.19891236737966761
10
96.196210244838554
20
-36.4680319845816
10
92.653789755153014
20
-32.925611494896081
42
-0.19891236737964971
10
92.504999999995761
20
-32.566401250053303
10
92.504999999995775
20
-31.219001396179202
42
0.41421356237307461
10
91.996999999995779
20
-30.711001396179203
10
88.002999999995779
20
-30.711001396179199
42
0.41421356237307205
10
87.49499999999577
20
-31.219001396179202
10
87.494999999995784
20
-32.566401250053303
42
-0.19891236737974224
10
87.346210244838545
20
-32.925611494896103
10
83.803789755153019
20
-36.468031984581629
42
0.19891236737972226
10
83.654999999995766
20
-36.8272422294244
10
83.654999999995738
20
-41.7230013961792
42
-0.41421356237308826
10
82.511999999995766
20
-42.8660013961792
10
77.615920489681258
20
-42.866001396179243
42
0.19891236737960208
10
77.256710244838558
20
-43.014791151336397
10
73.714289755152976
20
-46.557211641022022
42
-0.19891236737961945
10
73.355079510310247
20
-46.706001396179204
10
72.007999999995761
20
-46.706001396179211
42
0.41421356237310525
10
71.499999999995765
20
-47.214001396179199
10
71.499999999995751
20
-51.208001396179192
42
0.41421356237307971
10
72.007999999995761
20
-51.716001396179209
10
73.355079510310262
20
-51.716001396179259
42
-0.19891236737964321
10
73.714289755152961
20
-51.864791151336441
10
77.25671024483853
20
-55.407211641022002
42
0.19891236737965159
10
77.615920489681258
20
-55.556001396179198
10
82.511999999995766
20
-55.556001396179198
42
-0.41421356237309509
10
83.654999999995766
20
-56.699001396179199
10
83.654999999995766
20
-61.594760562934027
42
0.19891236737963286
10
83.803789755152991
20
-61.953970807776798
10
87.346210244838545
20
-65.496391297462338
42
-0.1989123673797
10
87.49499999999577
20
-65.855601542305095
10
87.49499999999577
20
-67.203001396179204
42
0.41421356237307461
10
88.002999999995779
20
-67.711001396179199
10
91.996999999995779
20
-67.711001396179199
42
0.41421356237307971
10
92.504999999995761
20
-67.203001396179204
10
92.504999999995761
20
-65.855601542305095
42
-0.1989123673796109
10
92.653789755152985
20
-65.496391297462324
10
96.196210244838539
20
-61.953970807776798
42
0.19891236737971874
10
96.344999999995764
20
-61.594760562934034
10
96.344999999995764
20
-56.699001396179199
42
-0.41421356237309509
10
97.487999999995765
20
-55.556001396179198
10
102.38407951031027
20
-55.556001396179198
42
0.19891236737963289
10
102.74328975515297
20
-55.407211641021973
10
106.28571024483855
20
-51.864791151336398
42
-0.19891236737963561
10
106.64492048968128
20
-51.716001396179209
10
107.99199999999578
20
-51.716001396179195
42
0.4142135623731002
0
LWPOLYLINE
5
102
100
AcDbEntity
8
0
100
AcDbPolyline
90
16
70
1
43
0.0
10
102.30449303678958
20
-37.086508359385405
10
102.12449303678957
20
-36.906508359385406
42
0.58433019455589474
10
100.80372998782055
20
-37.275224005395039
42
0.19934880077009332
10
99.196270012170956
20
-37.275224005395003
42
0.58433019455586821
10
97.875506963201971
20
-36.906508359385406
10
97.695506963201964
20
-37.086508359385391
42
0.58433019455587609
10
98.064222609211612
20
-38.407271408354404
42
0.19934880077008296
10
98.064222609211612
20
-40.014731384003994
42
0.58433019455586499
10
97.69550696320195
20
-41.335494432973007
10
97.875506963201943
20
-41.515494432973
42
0.58433019455587842
10
99.196270012170999
20
-41.146778786963367
42
0.1993488007700864
10
100.80372998782056
20
-41.146778786963402
42
0.5843301945558701
10
102.12449303678957
20
-41.515494432972993
10
102.30449303678958
20
-41.335494432973022
42
0.5843301945558822
10
101.93577739077989
20
-40.014731384003966
42
0.19934880077010075
10
101.93577739077996
20
-38.407271408354397
42
0.58433019455584423
0
LWPOLYLINE
5
103
100
AcDbEntity
8
0
100
AcDbPolyline
90
16
70
1
43
0.0
10
101.93577739077993
20
-58.407271408354418
42
-0.19934880077008732
10
101.93577739077993
20
-60.014731384003987
42
-0.58433019455586666
10
102.30449303678958
20
-61.335494432973022
10
102.12449303678957
20
-61.515494432973028
42
-0.58433019455586577
10
100.80372998782056
20
-61.146778786963345
42
-0.19934880077009196
10
99.196270012170999
20
-61.146778786963367
42
-0.58433019455588475
10
97.875506963201957
20
-61.515494432973014
10
97.695506963201964
20
-61.335494432973007
42
-0.58433019455588298
10
98.064222609211612
20
-60.014731384004001
42
-0.19934880077009401
10
98.064222609211598
20
-58.407271408354397
42
-0.58433019455588009
10
97.695506963201964
20
-57.086508359385391
10
97.875506963201957
20
-56.906508359385377
42
-0.58433019455587221
10
99.19627001217097
20
-57.275224005395025
42
-0.19934880077009262
10
100.80372998782059
20
-57.275224005395046
42
-0.58433019455587321
10
102.12449303678957
20
-56.906508359385384
10
102.30449303678958
20
-57.086508359385384
42
-0.58433019455586299
0
LWPOLYLINE
5
104
100
AcDbEntity
8
0
100
AcDbPolyline
90
16
70
1
43
0.0
10
82.30449303678958
20
-37.086508359385405
10
82.124493036789573
20
-36.906508359385406
42
0.58433019455586332
10
80.803729987820546
20
-37.275224005395017
42
0.1993488007700889
10
79.19627001217097
20
-37.275224005395003
42
0.58433019455586044
10
77.875506963201971
20
-36.906508359385406
10
77.695506963201936
20
-37.086508359385391
42
0.58433019455587876
10
78.064222609211626
20
-38.407271408354426
42
0.19934880077007888
10
78.064222609211569
20
-40.014731384004001
42
0.58433019455585644
10
77.695506963201964
20
-41.335494432973007
10
77.875506963201943
20
-41.515494432973021
42
0.58433019455586299
10
79.196270012170956
20
-41.146778786963374
42
0.19934880077009259
10
80.80372998782056
20
-41.146778786963395
42
0.58433019455586377
10
82.124493036789573
20
-41.515494432972993
10
82.304493036789552
20
-41.335494432973015
42
0.58433019455586754
10
81.935777390779933
20
-40.014731384003994
42
0.19934880077010303
10
81.935777390779933
20
-38.407271408354411
42
0.58433019455588409
0
LWPOLYLINE
5
105
100
AcDbEntity
8
0
100
AcDbPolyline
90
16
70
1
43
0.0
10
81.935777390779933
20
-58.407271408354404
42
-0.19934880077008285
10
81.935777390779919
20
-60.014731384003994
42
-0.5843301945558903
10
82.30449303678958
20
-61.335494432973015
10
82.124493036789573
20
-61.515494432973014
42
-0.58433019455585211
10
80.803729987820532
20
-61.14677878696331
42
-0.19934880077009287
10
79.19627001217097
20
-61.146778786963374
42
-0.58433019455586932
10
77.875506963201957
20
-61.515494432973021
10
77.695506963201964
20
-61.335494432973022
42
-0.58433019455585278
10
78.064222609211598
20
-60.014731384003994
42
-0.19934880077009809
10
78.064222609211583
20
-58.407271408354418
42
-0.58433019455587376
10
77.69550696320195
20
-57.086508359385391
10
77.875506963201957
20
-56.906508359385384
42
-0.58433019455587387
10
79.196270012170942
20
-57.275224005394975
42
-0.19934880077009126
10
80.803729987820546
20
-57.275224005395032
42
-0.58433019455586854
10
82.124493036789573
20
-56.906508359385384
10
82.304493036789594
20
-57.086508359385384
42
-0.58433019455588664
0
ENDSEC
0
SECTION
2
OBJECTS
0
DICTIONARY
5
C
100
AcDbDictionary
3
ACAD_GROUP
350
D
3
ACAD_MLINESTYLE
350
17
0
DICTIONARY
5
D
100
AcDbDictionary
0
DICTIONARY
5
1A
330
C
100
AcDbDictionary
0
DICTIONARY
5
17
100
AcDbDictionary
0
ENDSEC
0
EOF
