0
SECTION
2
HEADER
9
$INSUNITS
70
4
9
$ACADVER
1
AC1014
9
$HANDSEED
5
FFFF
0
ENDSEC
0
SECTION
2
TABLES
0
TABLE
2
VPORT
5
8
100
AcDbSymbolTable
0
ENDTAB
0
TABLE
2
LTYPE
5
5
100
AcDbSymbolTable
0
LTYPE
5
14
100
AcDbSymbolTableRecord
100
AcDbLinetypeTableRecord
2
BYBLOCK
70
0
0
LTYPE
5
15
100
AcDbSymbolTableRecord
100
AcDbLinetypeTableRecord
2
BYLAYER
70
0
0
ENDTAB
0
TABLE
2
LAYER
5
2
100
AcDbSymbolTable
70
2
0
LAYER
5
50
100
AcDbSymbolTableRecord
100
AcDbLayerTableRecord
2
0
70
0
6
CONTINUOUS
0
ENDTAB
0
TABLE
2
STYLE
5
3
100
AcDbSymbolTable
70
1
0
STYLE
5
11
100
AcDbSymbolTableRecord
100
AcDbTextStyleTableRecord
2
STANDARD
70
0
0
ENDTAB
0
TABLE
2
VIEW
5
6
100
AcDbSymbolTable
70
0
0
ENDTAB
0
TABLE
2
UCS
5
7
100
AcDbSymbolTable
70
0
0
ENDTAB
0
TABLE
2
APPID
5
9
100
AcDbSymbolTable
70
2
0
APPID
5
12
100
AcDbSymbolTableRecord
100
AcDbRegAppTableRecord
2
ACAD
70
0
0
ENDTAB
0
TABLE
2
DIMSTYLE
5
A
100
AcDbSymbolTable
70
1
0
ENDTAB
0
TABLE
2
BLOCK_RECORD
5
1
100
AcDbSymbolTable
70
1
0
BLOCK_RECORD
5
1F
100
AcDbSymbolTableRecord
100
AcDbBlockTableRecord
2
*MODEL_SPACE
0
BLOCK_RECORD
5
1B
100
AcDbSymbolTableRecord
100
AcDbBlockTableRecord
2
*PAPER_SPACE
0
ENDTAB
0
ENDSEC
0
SECTION
2
BLOCKS
0
BLOCK
5
20
100
AcDbEntity
100
AcDbBlockBegin
2
*MODEL_SPACE
0
ENDBLK
5
21
100
AcDbEntity
100
AcDbBlockEnd
0
BLOCK
5
1C
100
AcDbEntity
100
AcDbBlockBegin
2
*PAPER_SPACE
0
ENDBLK
5
1D
100
AcDbEntity
100
AcDbBlockEnd
0
ENDSEC
0
SECTION
2
ENTITIES
0
CIRCLE
5
100
100
AcDbEntity
8
0
100
AcDbCircle
10
0
20
0
30
0
40
11.25
0
CIRCLE
5
101
100
AcDbEntity
8
0
100
AcDbCircle
10
-15.5
20
15.5
30
0
40
1.7500000000000016
0
CIRCLE
5
102
100
AcDbEntity
8
0
100
AcDbCircle
10
15.5
20
15.5
30
0
40
1.7500000000000016
0
CIRCLE
5
103
100
AcDbEntity
8
0
100
AcDbCircle
10
-15.5
20
-15.5
30
0
40
1.7500000000000016
0
CIRCLE
5
104
100
AcDbEntity
8
0
100
AcDbCircle
10
15.5
20
-15.5
30
0
40
1.7500000000000016
0
LINE
5
105
100
AcDbEntity
8
0
100
AcDbLine
10
-21.149999999999999
20
21.149999999999991
30
0
11
21.149999999999999
21
21.149999999999991
31
0
0
LINE
5
106
100
AcDbEntity
8
0
100
AcDbLine
10
21.149999999999999
20
21.149999999999991
30
0
11
21.149999999999999
21
-21.149999999999991
31
0
0
LINE
5
107
100
AcDbEntity
8
0
100
AcDbLine
10
21.149999999999999
20
-21.149999999999991
30
0
11
-21.149999999999999
21
-21.149999999999991
31
0
0
LINE
5
108
100
AcDbEntity
8
0
100
AcDbLine
10
-21.149999999999999
20
-21.149999999999991
30
0
11
-21.149999999999999
21
21.149999999999991
31
0
0
LINE
5
109
100
AcDbEntity
8
0
100
AcDbLine
10
-21.149999999999999
20
21.149999999999991
30
0
11
21.149999999999999
21
-21.149999999999991
31
0
0
LINE
5
110
100
AcDbEntity
8
0
100
AcDbLine
10
21.149999999999999
20
21.149999999999991
30
0
11
-21.149999999999999
21
-21.149999999999991
31
0
0
LINE
5
111
100
AcDbEntity
8
0
100
AcDbLine
10
0
20
-6.2150000000000007
30
0
11
100.00000149011612
21
-6.2150000000000007
31
0
0
CIRCLE
5
112
100
AcDbEntity
8
0
100
AcDbCircle
10
26.799999999999997
20
-16.215000000000003
30
0
40
2.6499999999999968
0
CIRCLE
5
113
100
AcDbEntity
8
0
100
AcDbCircle
10
46.799999999999997
20
-16.215000000000003
30
0
40
2.6499999999999968
0
CIRCLE
5
114
100
AcDbEntity
8
0
100
AcDbCircle
10
26.799999999999997
20
3.7849999999999984
30
0
40
2.6499999999999968
0
CIRCLE
5
115
100
AcDbEntity
8
0
100
AcDbCircle
10
46.799999999999997
20
3.7849999999999993
30
0
40
2.6499999999999968
0
LINE
5
116
100
AcDbEntity
8
0
100
AcDbLine
10
-3.6792806515764953
20
13.784999999999998
30
0
11
96.320720838539629
21
13.784999999999998
31
0
0
LINE
5
117
100
AcDbEntity
8
0
100
AcDbLine
10
-3.6792806515764953
20
30.785
30
0
11
96.320720838539629
21
30.785
31
0
0
CIRCLE
5
118
100
AcDbEntity
8
0
100
AcDbCircle
10
26.024999999999999
20
22.785000000000004
30
0
40
2.6500000000000012
0
CIRCLE
5
119
100
AcDbEntity
8
0
100
AcDbCircle
10
26.024999999999999
20
22.785000000000004
30
0
40
8
0
LINE
5
120
100
AcDbEntity
8
0
100
AcDbLine
10
-6.582513384387215
20
9.1232131151493157
30
0
11
21.344101593324645
21
29.272618215217289
31
0
0
LINE
5
121
100
AcDbEntity
8
0
100
AcDbLine
10
51.674999999999997
20
-26.215000000000003
30
0
11
21.149999999999999
21
-26.215000000000003
31
0
0
LINE
5
122
100
AcDbEntity
8
0
100
AcDbLine
10
-21.149999999999999
20
-21.149999999999991
30
0
11
-21.149999999999999
21
21.149999999999991
31
0
0
LINE
5
123
100
AcDbEntity
8
0
100
AcDbLine
10
12.510000089406974
20
27.660000000000004
30
0
11
37.800000000000004
21
27.660000000000011
31
0
0
LINE
5
124
100
AcDbEntity
8
0
100
AcDbLine
10
51.675000000000004
20
13.784999999999998
30
0
11
51.674999999999997
21
-26.215000000000003
31
0
0
LINE
5
125
100
AcDbEntity
8
0
100
AcDbLine
10
51.675000000000004
20
13.784999999999998
30
0
11
37.800000000000004
21
27.660000000000011
31
0
0
LINE
5
126
100
AcDbEntity
8
0
100
AcDbLine
10
51.675000000000004
20
13.784999999999998
30
0
11
30.744439716533893
21
13.784999999999998
31
0
0
LINE
5
127
100
AcDbEntity
8
0
100
AcDbLine
10
21.149999999999999
20
-26.215000000000003
30
0
11
16.08499999999999
21
-21.149999999999991
31
0
0
LINE
5
128
100
AcDbEntity
8
0
100
AcDbLine
10
21.149999999999999
20
-26.215000000000003
30
0
11
36.149290575868719
21
-26.215000000000003
31
0
0
LINE
5
129
100
AcDbEntity
8
0
100
AcDbLine
10
16.08499999999999
20
-21.149999999999991
30
0
11
-21.149999999999999
21
-21.149999999999991
31
0
0
LINE
5
130
100
AcDbEntity
8
0
100
AcDbLine
10
-21.149999999999999
20
21.149999999999991
30
0
11
6.0000000894069672
21
21.149999999999991
31
0
0
LINE
5
131
100
AcDbEntity
8
0
100
AcDbLine
10
6.0000000894069672
20
21.149999999999991
30
0
11
12.510000089406974
21
27.660000000000004
31
0
0
LINE
5
132
100
AcDbEntity
8
0
100
AcDbLine
10
6.0000000894069672
20
21.149999999999991
30
0
11
18.124076149899174
21
21.149999999999991
31
0
0
ENDSEC
0
SECTION
2
OBJECTS
0
DICTIONARY
5
C
100
AcDbDictionary
3
ACAD_GROUP
350
D
3
ACAD_MLINESTYLE
350
17
0
DICTIONARY
5
D
100
AcDbDictionary
0
DICTIONARY
5
1A
330
C
100
AcDbDictionary
0
DICTIONARY
5
17
100
AcDbDictionary
0
ENDSEC
0
EOF
